#!OML:ASF X:\für Bonn\!DataBase\2005_08_12_Daniel\c3d\Daniel.ASF
:FULLY-SPECIFIED
:DEGREES
172
root -0.416522 12.405 1.36504 179.952 -9.60587 -189.113
lowerback 81.8834 -10.3662 19.9482
upperback 9.19369 -4.21525 -2.08039
thorax -8.77686 -4.93374 -7.25646
lowerneck 3.71334 -8.91363 -1.95439
upperneck 8.58993 -12.5452 1.41534
head 2.31845 -6.34069 0.628667
rclavicle -3.18055e-015 2.42517e-014
rhumerus 222.22 -156.185 -256.857
rradius 4.84278
rwrist 34.7103
rhand -44.4051 14.999
rfingers 7.12502
rthumb -17.2111 -14.2588
lclavicle -3.18055e-015 2.42517e-014
lhumerus -25.2965 -15.4812 93.7169
lradius 49.1577
lwrist 9.76762
lhand -9.44108 -9.35362
lfingers 7.12502
lthumb 16.5218 19.963
rfemur -69.3122 -12.3657 6.07027
rtibia 109.886
rfoot -34.4552 -3.04245
rtoes -23.1149
lfemur -68.0091 1.28994 -30.4663
ltibia 105.6
lfoot -33.0095 -17.7143
ltoes 0.583787
173
root -0.424007 12.4708 1.36807 179.855 -9.54081 -189.07
lowerback 81.978 -10.3982 19.9311
upperback 9.10361 -4.2222 -2.13782
thorax -8.88123 -4.93829 -7.30619
lowerneck 4.01101 -8.87611 -1.99678
upperneck 8.4679 -12.4984 1.40872
head 2.22804 -6.32392 0.652915
rclavicle 4.77083e-014 1.59028e-014
rhumerus 221.997 -156.234 -256.933
rradius 4.90803
rwrist 34.6561
rhand -43.5088 14.5675
rfingers 7.12502
rthumb -16.3483 -14.7635
lclavicle 4.77083e-014 1.59028e-014
lhumerus -25.4237 -15.3715 93.7126
lradius 49.1001
lwrist 9.72952
lhand -9.33837 -9.33718
lfingers 7.12502
lthumb 16.6207 19.9711
rfemur -68.6824 -11.9814 6.03441
rtibia 109.174
rfoot -34.4571 -3.16674
rtoes -23.0874
lfemur -67.4213 1.28706 -30.4282
ltibia 104.948
lfoot -32.9167 -17.6435
ltoes 0.565735
174
root -0.431625 12.5404 1.37083 179.768 -9.47001 -189.03
lowerback 82.0336 -10.4042 19.8971
upperback 9.03629 -4.23172 -2.19226
thorax -8.96715 -4.94298 -7.34923
lowerneck 4.26992 -8.8238 -2.01556
upperneck 8.35073 -12.4291 1.40855
head 2.14464 -6.29437 0.673479
rclavicle 3.18055e-014 -1.94809e-014
rhumerus 221.819 -156.319 -257.06
rradius 4.92363
rwrist 34.4213
rhand -42.5492 14.2599
rfingers 7.12502
rthumb -15.4242 -15.1446
lclavicle 3.18055e-014 -1.94809e-014
lhumerus -25.4819 -15.2586 93.701
lradius 48.9809
lwrist 9.6475
lhand -9.25477 -9.31303
lfingers 7.12502
lthumb 16.7012 19.9885
rfemur -68.019 -11.6165 6.00331
rtibia 108.416
rfoot -34.4569 -3.28826
rtoes -23.0278
lfemur -66.8173 1.2711 -30.3934
ltibia 104.257
lfoot -32.7911 -17.5622
ltoes 0.554163
175
root -0.43834 12.6117 1.37444 179.68 -9.41159 -188.974
lowerback 82.0625 -10.401 19.8626
upperback 8.98471 -4.24305 -2.22662
thorax -9.0362 -4.95088 -7.36881
lowerneck 4.3617 -8.77218 -2.08854
upperneck 8.34224 -12.3652 1.37337
head 2.12704 -6.26882 0.679712
rclavicle -1.49486e-013 2.22639e-014
rhumerus 221.632 -156.448 -257.212
rradius 4.93038
rwrist 34.0195
rhand -41.5856 14.1432
rfingers 7.12502
rthumb -14.4959 -15.3305
lclavicle -1.49486e-013 2.22639e-014
lhumerus -25.468 -15.1212 93.6855
lradius 48.7973
lwrist 9.56787
lhand -9.17215 -9.26238
lfingers 7.12502
lthumb 16.7807 20.0325
rfemur -67.3533 -11.2564 6.00017
rtibia 107.646
rfoot -34.4343 -3.41657
rtoes -22.9558
lfemur -66.2066 1.23846 -30.3323
ltibia 103.55
lfoot -32.6739 -17.4817
ltoes 0.536056
176
root -0.444556 12.6864 1.37713 179.579 -9.32326 -188.917
lowerback 82.091 -10.3764 19.8286
upperback 8.93955 -4.23555 -2.27622
thorax -9.09769 -4.94863 -7.41682
lowerneck 4.39584 -8.72283 -2.18437
upperneck 8.37353 -12.3081 1.40054
head 2.13874 -6.24469 0.704305
rclavicle 2.22639e-014 -1.23246e-014
rhumerus 221.4 -156.539 -257.373
rradius 4.92987
rwrist 33.5071
rhand -40.6199 14.1386
rfingers 7.12502
rthumb -13.5653 -15.3995
lclavicle 2.22639e-014 -1.23246e-014
lhumerus -25.4469 -14.9947 93.678
lradius 48.6034
lwrist 9.45598
lhand -9.07325 -9.19287
lfingers 7.12502
lthumb 16.8759 20.0939
rfemur -66.6544 -10.8383 5.98141
rtibia 106.834
rfoot -34.4361 -3.49903
rtoes -22.8421
lfemur -65.5522 1.24755 -30.2773
ltibia 102.812
lfoot -32.5577 -17.377
ltoes 0.455179
177
root -0.450435 12.7613 1.38079 179.487 -9.25067 -188.843
lowerback 82.1061 -10.3497 19.7829
upperback 8.88583 -4.232 -2.31401
thorax -9.17229 -4.94981 -7.44413
lowerneck 4.2791 -8.65821 -2.30748
upperneck 8.51044 -12.233 1.40341
head 2.21073 -6.21237 0.715331
rclavicle 2.8625e-014 2.8625e-014
rhumerus 221.147 -156.666 -257.529
rradius 4.88232
rwrist 32.9528
rhand -39.7349 14.195
rfingers 7.12502
rthumb -12.7122 -15.398
lclavicle 2.8625e-014 2.8625e-014
lhumerus -25.4082 -14.8346 93.6606
lradius 48.3908
lwrist 9.35289
lhand -8.97456 -9.09047
lfingers 7.12502
lthumb 16.9709 20.1881
rfemur -65.9538 -10.4377 6.00122
rtibia 106.002
rfoot -34.3794 -3.63414
rtoes -22.7586
lfemur -64.9248 1.22592 -30.1894
ltibia 102.076
lfoot -32.4333 -17.2905
ltoes 0.413941
178
root -0.454798 12.8398 1.38471 179.368 -9.16898 -188.752
lowerback 82.1454 -10.3203 19.7522
upperback 8.82414 -4.20712 -2.36509
thorax -9.24983 -4.94102 -7.50121
lowerneck 4.06259 -8.61717 -2.34796
upperneck 8.71862 -12.1847 1.33502
head 2.31351 -6.19168 0.684417
rclavicle -2.22639e-014 -9.14409e-015
rhumerus 220.825 -156.749 -257.698
rradius 4.8406
rwrist 32.3407
rhand -38.9621 14.3299
rfingers 7.12502
rthumb -11.9671 -15.308
lclavicle -2.22639e-014 -9.14409e-015
lhumerus -25.3731 -14.7279 93.6456
lradius 48.1447
lwrist 9.25098
lhand -8.90873 -9.00367
lfingers 7.12502
lthumb 17.0343 20.2695
rfemur -65.2039 -9.99736 6.03105
rtibia 105.137
rfoot -34.3097 -3.7242
rtoes -22.6224
lfemur -64.2423 1.2413 -30.0838
ltibia 101.297
lfoot -32.2898 -17.205
ltoes 0.331103
179
root -0.459007 12.9175 1.38784 179.266 -9.10205 -188.671
lowerback 82.1268 -10.2769 19.7064
upperback 8.78979 -4.19926 -2.38904
thorax -9.3043 -4.94152 -7.51625
lowerneck 3.75493 -8.54682 -2.52964
upperneck 8.97891 -12.1046 1.33773
head 2.46435 -6.15765 0.691824
rclavicle -3.49861e-014 -1.31198e-014
rhumerus 220.529 -156.875 -257.847
rradius 4.77724
rwrist 31.6831
rhand -38.2806 14.5153
rfingers 7.12502
rthumb -11.3099 -15.1597
lclavicle -3.49861e-014 -1.31198e-014
lhumerus -25.3048 -14.5329 93.6393
lradius 47.912
lwrist 9.04662
lhand -8.87211 -8.92188
lfingers 7.12502
lthumb 17.0695 20.3482
rfemur -64.4649 -9.60509 6.0662
rtibia 104.264
rfoot -34.2352 -3.81906
rtoes -22.5017
lfemur -63.5798 1.21536 -29.978
ltibia 100.512
lfoot -32.1173 -17.1354
ltoes 0.318845
180
root -0.462212 12.9981 1.39059 179.152 -9.03439 -188.583
lowerback 82.0917 -10.2076 19.6507
upperback 8.75003 -4.16923 -2.41128
thorax -9.36682 -4.93255 -7.53612
lowerneck 3.52997 -8.48684 -2.62549
upperneck 9.1898 -12.0327 1.30872
head 2.57704 -6.12651 0.681835
rclavicle 8.26944e-014 -2.38542e-015
rhumerus 220.156 -156.985 -257.994
rradius 4.67136
rwrist 31.0752
rhand -37.7401 14.695
rfingers 7.12502
rthumb -10.7886 -15.0079
lclavicle 8.26944e-014 -2.38542e-015
lhumerus -25.2661 -14.4036 93.629
lradius 47.664
lwrist 8.95297
lhand -8.78286 -8.86467
lfingers 7.12502
lthumb 17.1554 20.398
rfemur -63.689 -9.17995 6.10563
rtibia 103.355
rfoot -34.1384 -3.9216
rtoes -22.298
lfemur -62.8736 1.19188 -29.865
ltibia 99.6996
lfoot -31.9657 -17.0338
ltoes 0.22913
181
root -0.464867 13.0813 1.39326 179.046 -8.96578 -188.472
lowerback 81.9273 -10.0762 19.5853
upperback 8.78869 -4.13356 -2.39832
thorax -9.35172 -4.92201 -7.52313
lowerneck 3.38246 -8.41465 -2.69977
upperneck 9.3304 -11.9402 1.27726
head 2.65073 -6.08515 0.674199
rclavicle -1.59028e-014 -5.56597e-015
rhumerus 219.768 -157.109 -258.145
rradius 4.62121
rwrist 30.5111
rhand -37.2488 14.8407
rfingers 7.12502
rthumb -10.3147 -14.8863
lclavicle -1.59028e-014 -5.56597e-015
lhumerus -25.166 -14.2002 93.6111
lradius 47.3925
lwrist 8.79883
lhand -8.76082 -8.86142
lfingers 7.12502
lthumb 17.1767 20.3994
rfemur -62.9039 -8.77605 6.18414
rtibia 102.417
rfoot -34.0524 -4.0173
rtoes -22.1559
lfemur -62.1859 1.15577 -29.7156
ltibia 98.8741
lfoot -31.7776 -16.9611
ltoes 0.134983
182
root -0.466512 13.1643 1.3955 178.941 -8.89805 -188.378
lowerback 81.6813 -9.90579 19.508
upperback 8.85811 -4.0861 -2.3792
thorax -9.31172 -4.9039 -7.50953
lowerneck 3.36985 -8.35753 -2.75711
upperneck 9.40273 -11.869 1.25043
head 2.67746 -6.05491 0.673642
rclavicle 1.27222e-014 3.02153e-014
rhumerus 219.336 -157.214 -258.292
rradius 4.51883
rwrist 30.0548
rhand -36.8543 15.0239
rfingers 7.12502
rthumb -9.93411 -14.7217
lclavicle 1.27222e-014 3.02153e-014
lhumerus -25.0548 -14.0014 93.6042
lradius 47.0683
lwrist 8.57368
lhand -8.78446 -8.88223
lfingers 7.12502
lthumb 17.1539 20.3806
rfemur -62.1297 -8.39006 6.25367
rtibia 101.471
rfoot -33.9164 -4.10591
rtoes -21.9878
lfemur -61.4715 1.11312 -29.5841
ltibia 98.0281
lfoot -31.6093 -16.8529
ltoes 0.0449236
